<svg xmlns="http://www.w3.org/2000/svg" xmlns:xlink="http://www.w3.org/1999/xlink" xmlns:lucid="lucid" width="925" height="625"><g transform="translate(-96.83333333337202 -18.166666666666742)" lucid:page-tab-id="oFgwzABP7Rgm"><path d="M0 0h1500v1000H0z" fill="#fff"/><path d="M458.67 44.67a6 6 0 0 1 6-6h530.66a6 6 0 0 1 6 6V202a6 6 0 0 1-6 6H464.67a6 6 0 0 1-6-6z" fill="#fff"/><path d="M474.77 38.67h10.1m5.07 0h10.1m5.06 0h10.1m5.06 0h10.1m5.06 0h10.1m5.06 0h10.1m5.07 0h10.1m5.06 0h10.12m5.05 0h10.1m5.06 0h10.1m5.06 0h10.1m5.06 0h10.1m5.06 0h10.1m5.06 0h10.1m5.06 0h10.1m5.06 0h10.1m5.07 0h10.1m5.06 0h10.1m5.06 0h10.1m5.05 0h10.1m5.06 0h10.12m5.05 0h10.1m5.07 0h10.1m5.06 0h10.1m5.06 0h10.1m5.06 0h10.1m5.06 0h10.1m5.07 0h10.1m5.06 0h10.12m5.05 0h10.1m5.06 0h10.1m5.06 0h10.1m5.06 0h10.1m5.06 0h10.1m5.06 0h5.05l.94.07.92.22.86.36.8.5.72.6.6.72.5.8.36.87.22.93.07.94v5.24m0 5.26v10.48m0 5.25v10.48m0 5.24v10.5m0 5.24v10.48m0 5.25v10.48m0 5.24v10.5m0 5.24v10.48m0 5.25v10.48m0 5.24v10.5m0 5.24V202l-.07.94-.22.9-.36.88-.5.8-.6.72-.72.6-.8.5-.87.37-.93.23-.94.07h-5.05m-5.05 0h-10.1m-5.07 0h-10.1m-5.06 0h-10.1m-5.06 0h-10.1m-5.06 0h-10.1m-5.06 0h-10.1m-5.07 0h-10.1m-5.06 0h-10.12m-5.05 0h-10.1m-5.06 0h-10.1m-5.06 0h-10.1m-5.06 0h-10.1m-5.06 0h-10.1m-5.06 0h-10.1m-5.06 0h-10.1m-5.06 0h-10.1m-5.07 0h-10.1m-5.06 0h-10.1m-5.06 0h-10.1m-5.05 0h-10.1m-5.06 0h-10.12m-5.05 0h-10.1m-5.07 0h-10.1m-5.06 0h-10.1m-5.06 0h-10.1m-5.06 0h-10.1m-5.06 0h-10.1m-5.07 0h-10.1m-5.06 0h-10.12m-5.05 0h-10.1m-5.06 0h-10.1m-5.06 0h-10.1m-5.06 0h-10.1m-5.06 0h-10.1m-5.06 0h-5.05l-.94-.07-.92-.22-.86-.35-.8-.5-.72-.6-.6-.72-.5-.8-.36-.88-.22-.9-.07-.95v-5.24m0-5.25v-10.48m0-5.24v-10.5m0-5.24v-10.48m0-5.25v-10.48m0-5.24v-10.5m0-5.24v-10.48m0-5.25V86.63m0-5.24v-10.5m0-5.24V55.16m0-5.25v-5.23l.07-.94.22-.92.36-.86.5-.8.6-.72.72-.6.8-.5.87-.36.93-.22.94-.07h5.05" stroke="#3a414a" fill="none"/><use xlink:href="#a" transform="matrix(1,0,0,1,463.66666661903804,43.66666666666674) translate(201.31481481481484 17.77777777777778)"/><path d="M117.33 466a6 6 0 0 1 6-6h544a6 6 0 0 1 6 6v150.67a6 6 0 0 1-6 6h-544a6 6 0 0 1-6-6z" fill="#fff"/><path d="M133.4 460h10.08m5.04 0h10.07m5.03 0h10.07m5.04 0h10.07m5.05 0h10.08m5.03 0h10.08m5.03 0h10.08m5.03 0h10.08m5.04 0h10.07m5.04 0h10.08m5.04 0h10.07m5.03 0h10.07m5.04 0h10.07m5.05 0h10.08m5.03 0h10.08m5.03 0h10.08m5.04 0h10.06m5.04 0h10.07m5.04 0h10.08m5.04 0h10.07m5.03 0h10.07m5.04 0h10.07m5.05 0h10.08m5.03 0h10.08m5.03 0h10.08m5.04 0h10.06m5.04 0h10.07m5.04 0h10.08m5.04 0h10.07m5.03 0h10.07m5.04 0h10.08m5.03 0h10.08m5.03 0h10.08m5.03 0h10.08m5.03 0h10.08m5.04 0h5.03l.94.07.92.22.86.35.8.5.72.6.6.72.5.8.36.88.22.9.07.95v5.02m0 5.02v10.05m0 5v10.06m0 5.02v10.04m0 5.02v10.05m0 5v10.06m0 5.02v10.04m0 5.02v10.05m0 5v10.06m0 5.02v10.04m0 5.02v5.03l-.07.94-.22.92-.36.87-.5.8-.6.7-.72.62-.8.5-.87.35-.93.22-.94.07h-5.03m-5.04 0h-10.08m-5.03 0h-10.08m-5.03 0h-10.08m-5.03 0h-10.08m-5.03 0h-10.08m-5.04 0h-10.07m-5.04 0H556.5m-5.04 0H541.4m-5.03 0H526.3m-5.04 0H511.2m-5.05 0h-10.08m-5.03 0h-10.08m-5.03 0h-10.08m-5.04 0h-10.06m-5.04 0h-10.07m-5.04 0H420.5m-5.04 0H405.4m-5.03 0H390.3m-5.04 0H375.2m-5.05 0h-10.08m-5.03 0h-10.08m-5.03 0h-10.08m-5.04 0h-10.06m-5.04 0h-10.07m-5.04 0H284.5m-5.04 0H269.4m-5.03 0H254.3m-5.04 0H239.2m-5.05 0h-10.08m-5.03 0h-10.08m-5.03 0h-10.08m-5.03 0h-10.08m-5.04 0h-10.07m-5.04 0H148.5m-5.04 0H133.4m-5.03 0h-5.04l-.94-.08-.92-.23-.87-.36-.8-.48-.7-.6-.62-.73-.5-.8-.35-.88-.22-.9-.07-.95v-5.03m0-5.02v-10.04m0-5.02V581.5m0-5v-10.06m0-5.02v-10.04m0-5.02V536.3m0-5v-10.06m0-5.02v-10.04m0-5.02V491.1m0-5v-10.06m0-5.02V466l.08-.94.23-.9.36-.88.48-.8.6-.72.73-.6.8-.5.88-.37.9-.23.95-.07h5.04" stroke="#3a414a" fill="none"/><use xlink:href="#b" transform="matrix(1,0,0,1,122.33333333337202,465.0000000000388) translate(242.1358024691358 151.59035377777775)"/><path d="M652 535.97c0 30.56-37 55.33-82.67 55.33-45.65 0-82.66-24.77-82.66-55.33s37-55.34 82.66-55.34S652 505.4 652 535.98z" stroke="#3a414a" fill="#fff"/><use xlink:href="#c" transform="matrix(1,0,0,1,491.66666661903804,485.6350067842604) translate(40.40740740740741 55.65277777777778)"/><path d="M325.33 535.97c0 30.56-37 55.33-82.66 55.33S160 566.53 160 535.97s37-55.34 82.67-55.34c45.65 0 82.66 24.78 82.66 55.34z" stroke="#3a414a" fill="#fff"/><use xlink:href="#d" transform="matrix(1,0,0,1,165.00000004762836,485.6350067842604) translate(18.185185185185183 55.65277777777778)"/><path d="M361.58 536.47h-35.25v-1h35.25zm123.68 0h-34.84v-1h34.84z" stroke="#3a414a" stroke-width=".05" fill="#3a414a"/><path d="M326.35 536.47h-.53v-1h.53z" fill="#3a414a"/><path d="M326.37 536.5h-.58v-1.06h.57zm-.52-1v.94h.47v-.95zM486.17 535.97l-17.95 10.6-.5-.85 16.48-9.75-16.5-9.75.52-.86z" stroke="#3a414a" stroke-width=".05" fill="#3a414a"/><use xlink:href="#e" transform="matrix(1,0,0,1,361.580246756689,514.6350067842603) translate(0 14.222222222222223)"/><use xlink:href="#f" transform="matrix(1,0,0,1,361.580246756689,514.6350067842603) translate(33.580246913580254 14.222222222222223)"/><use xlink:href="#g" transform="matrix(1,0,0,1,361.580246756689,514.6350067842603) translate(0 35.55555555555556)"/><use xlink:href="#h" transform="matrix(1,0,0,1,361.580246756689,514.6350067842603) translate(19.75308641975309 35.55555555555556)"/><path d="M652 125.33c0 30.56-37 55.34-82.67 55.34-45.65 0-82.66-24.78-82.66-55.34 0-30.56 37-55.33 82.66-55.33S652 94.77 652 125.33z" stroke="#3a414a" fill="#fff"/><use xlink:href="#i" transform="matrix(1,0,0,1,491.66666661903815,75.00000000000004) translate(39.79012345679012 55.65277777777778)"/><path d="M978.67 125.33c0 30.56-37 55.34-82.67 55.34-45.66 0-82.67-24.78-82.67-55.34 0-30.56 37-55.33 82.67-55.33 45.66 0 82.67 24.77 82.67 55.33z" stroke="#3a414a" fill="#fff"/><use xlink:href="#j" transform="matrix(1,0,0,1,818.3333331904478,75.00000000000004) translate(29.296296296296298 55.65277777777778)"/><path d="M678.9 125.83H653v-1h25.9zm133.02 0h-25.48v-1h25.48z" stroke="#3a414a" stroke-width=".05" fill="#3a414a"/><path d="M653 125.83h-.5v-1h.5z" fill="#3a414a"/><path d="M653.04 125.86h-.58v-1.05h.58zm-.53-1l.02.47v.48h.47v-.94zM812.83 125.33l-17.94 10.6-.52-.85 16.5-9.75-16.5-9.75.5-.86z" stroke="#3a414a" stroke-width=".05" fill="#3a414a"/><use xlink:href="#e" transform="matrix(1,0,0,1,678.8888886367407,114.66666666666669) translate(0 14.222222222222223)"/><use xlink:href="#k" transform="matrix(1,0,0,1,678.8888886367407,114.66666666666669) translate(33.580246913580254 14.222222222222223)"/><path d="M569.84 255h-1l.07-16.38h1zm.3-72.93L570 217.3h-1l.15-35.24z" stroke="#3a414a" stroke-width=".05" fill="#3a414a"/><path d="M569.84 255v.5h-1v-.5z" fill="#3a414a"/><path d="M569.86 254.96v.58h-1.05v-.58zm-1 .53l.47-.03.48.02v-.5h-.94zM580.2 199.15l-.87.5-9.68-16.53-9.82 16.45-.86-.52 10.7-17.9z" stroke="#3a414a" stroke-width=".05" fill="#3a414a"/><use xlink:href="#l" transform="matrix(1,0,0,1,525.033734912797,217.2873294569915) translate(0 14.222222222222223)"/><use xlink:href="#m" transform="matrix(1,0,0,1,525.033734912797,217.2873294569915) translate(74.02469135802468 14.222222222222223)"/><path d="M652 311.33c0 30.56-37 55.34-82.67 55.34-45.65 0-82.66-24.78-82.66-55.34 0-30.56 37-55.33 82.66-55.33S652 280.77 652 311.33z" stroke="#3a414a" fill="#fff"/><use xlink:href="#n" transform="matrix(1,0,0,1,491.6666666190379,261.00000000001944) translate(26.94944444444444 43.02777777777778)"/><use xlink:href="#o" transform="matrix(1,0,0,1,491.6666666190379,261.00000000001944) translate(109.54203703703703 43.02777777777778)"/><use xlink:href="#p" transform="matrix(1,0,0,1,491.6666666190379,261.00000000001944) translate(40.498827160493825 69.69444444444446)"/><path d="M569.83 479.63h-1V445h1zm0-77.3h-1v-34.25h1z" stroke="#3a414a" stroke-width=".05" fill="#3a414a"/><path d="M569.83 480.15h-1v-.53h1z" fill="#3a414a"/><path d="M569.86 480.18l-.53-.02h-.52v-.56h1.06zm-1-.53v.47h.95v-.47zM579.95 385.1l-.87.52-9.75-16.5-9.75 16.5-.86-.5 10.6-17.95z" stroke="#3a414a" stroke-width=".05" fill="#3a414a"/><g><use xlink:href="#l" transform="matrix(1,0,0,1,519.9753085943466,402.31750356858123) translate(0 14.222222222222223)"/><use xlink:href="#q" transform="matrix(1,0,0,1,519.9753085943466,402.31750356858123) translate(74.02469135802468 14.222222222222223)"/><use xlink:href="#r" transform="matrix(1,0,0,1,519.9753085943466,402.31750356858123) translate(93.77777777777777 14.222222222222223)"/><use xlink:href="#s" transform="matrix(1,0,0,1,519.9753085943466,402.31750356858123) translate(0 35.55555555555556)"/><use xlink:href="#m" transform="matrix(1,0,0,1,519.9753085943466,402.31750356858123) translate(62.12345679012346 35.55555555555556)"/></g><defs><path fill="#3a414a" d="M143 4C61 4 22-44 18-125c-5-107 100-154 193-111 17 8 29 25 37 43l-32 9c-13-25-37-40-76-40-61 0-88 39-88 99 0 61 29 100 91 101 35 0 62-11 79-27v-45h-74v-28h105v86C228-13 192 4 143 4" id="t"/><path fill="#3a414a" d="M100-194c63 0 86 42 84 106H49c0 40 14 67 53 68 26 1 43-12 49-29l28 8c-11 28-37 45-77 45C44 4 14-33 15-96c1-61 26-98 85-98zm52 81c6-60-76-77-97-28-3 7-6 17-6 28h103" id="u"/><path fill="#3a414a" d="M100-194c62-1 85 37 85 99 1 63-27 99-86 99S16-35 15-95c0-66 28-99 85-99zM99-20c44 1 53-31 53-75 0-43-8-75-51-75s-53 32-53 75 10 74 51 75" id="v"/><path fill="#3a414a" d="M185-189c-5-48-123-54-124 2 14 75 158 14 163 119 3 78-121 87-175 55-17-10-28-26-33-46l33-7c5 56 141 63 141-1 0-78-155-14-162-118-5-82 145-84 179-34 5 7 8 16 11 25" id="w"/><path fill="#3a414a" d="M30-248c87 1 191-15 191 75 0 78-77 80-158 76V0H30v-248zm33 125c57 0 124 11 124-50 0-59-68-47-124-48v98" id="x"/><path fill="#3a414a" d="M205 0l-28-72H64L36 0H1l101-248h38L239 0h-34zm-38-99l-47-123c-12 45-31 82-46 123h93" id="y"/><path fill="#3a414a" d="M233-177c-1 41-23 64-60 70L243 0h-38l-65-103H63V0H30v-248c88 3 205-21 203 71zM63-129c60-2 137 13 137-47 0-61-80-42-137-45v92" id="z"/><path fill="#3a414a" d="M140-251c81 0 123 46 123 126C263-53 228-8 163 1c7 30 30 48 69 40v23c-55 16-95-15-103-61C56-3 17-48 17-125c0-80 42-126 123-126zm0 227c63 0 89-41 89-101s-29-99-89-99c-61 0-89 39-89 99S79-25 140-24" id="A"/><path fill="#3a414a" d="M30 0v-248h33v221h125V0H30" id="B"/><g id="a"><use transform="matrix(0.06172839506172839,0,0,0.06172839506172839,0,0)" xlink:href="#t"/><use transform="matrix(0.06172839506172839,0,0,0.06172839506172839,17.28395061728395,0)" xlink:href="#u"/><use transform="matrix(0.06172839506172839,0,0,0.06172839506172839,29.629629629629626,0)" xlink:href="#v"/><use transform="matrix(0.06172839506172839,0,0,0.06172839506172839,41.9753086419753,0)" xlink:href="#w"/><use transform="matrix(0.06172839506172839,0,0,0.06172839506172839,56.79012345679011,0)" xlink:href="#x"/><use transform="matrix(0.06172839506172839,0,0,0.06172839506172839,69.93827160493827,0)" xlink:href="#y"/><use transform="matrix(0.06172839506172839,0,0,0.06172839506172839,84.75308641975307,0)" xlink:href="#z"/><use transform="matrix(0.06172839506172839,0,0,0.06172839506172839,100.74074074074073,0)" xlink:href="#A"/><use transform="matrix(0.06172839506172839,0,0,0.06172839506172839,118.02469135802468,0)" xlink:href="#B"/></g><path fill="#3a414a" d="M140-251c81 0 123 46 123 126C263-46 219 4 140 4 59 4 17-45 17-125s42-126 123-126zm0 227c63 0 89-41 89-101s-29-99-89-99c-61 0-89 39-89 99S79-25 140-24" id="C"/><g id="b"><use transform="matrix(0.06172839506172839,0,0,0.06172839506172839,0,0)" xlink:href="#w"/><use transform="matrix(0.06172839506172839,0,0,0.06172839506172839,14.814814814814813,0)" xlink:href="#C"/><use transform="matrix(0.06172839506172839,0,0,0.06172839506172839,32.09876543209876,0)" xlink:href="#w"/><use transform="matrix(0.06172839506172839,0,0,0.06172839506172839,46.91358024691357,0)" xlink:href="#y"/></g><path fill="#3a414a" d="M141-36C126-15 110 5 73 4 37 3 15-17 15-53c-1-64 63-63 125-63 3-35-9-54-41-54-24 1-41 7-42 31l-33-3c5-37 33-52 76-52 45 0 72 20 72 64v82c-1 20 7 32 28 27v20c-31 9-61-2-59-35zM48-53c0 20 12 33 32 33 41-3 63-29 60-74-43 2-92-5-92 41" id="D"/><path fill="#3a414a" d="M210-169c-67 3-38 105-44 169h-31v-121c0-29-5-50-35-48C34-165 62-65 56 0H25l-1-190h30c1 10-1 24 2 32 10-44 99-50 107 0 11-21 27-35 58-36 85-2 47 119 55 194h-31v-121c0-29-5-49-35-48" id="E"/><path fill="#3a414a" d="M115-194c55 1 70 41 70 98S169 2 115 4C84 4 66-9 55-30l1 105H24l-1-265h31l2 30c10-21 28-34 59-34zm-8 174c40 0 45-34 45-75s-6-73-45-74c-42 0-51 32-51 76 0 43 10 73 51 73" id="F"/><path fill="#3a414a" d="M24 0v-261h32V0H24" id="G"/><g id="c"><use transform="matrix(0.06172839506172839,0,0,0.06172839506172839,0,0)" xlink:href="#w"/><use transform="matrix(0.06172839506172839,0,0,0.06172839506172839,14.814814814814813,0)" xlink:href="#D"/><use transform="matrix(0.06172839506172839,0,0,0.06172839506172839,27.160493827160494,0)" xlink:href="#E"/><use transform="matrix(0.06172839506172839,0,0,0.06172839506172839,45.61728395061728,0)" xlink:href="#F"/><use transform="matrix(0.06172839506172839,0,0,0.06172839506172839,57.962962962962955,0)" xlink:href="#G"/><use transform="matrix(0.06172839506172839,0,0,0.06172839506172839,62.8395061728395,0)" xlink:href="#u"/></g><path fill="#3a414a" d="M115-194c53 0 69 39 70 98 0 66-23 100-70 100C84 3 66-7 56-30L54 0H23l1-261h32v101c10-23 28-34 59-34zm-8 174c40 0 45-34 45-75 0-40-5-75-45-74-42 0-51 32-51 76 0 43 10 73 51 73" id="H"/><path fill="#3a414a" d="M135-143c-3-34-86-38-87 0 15 53 115 12 119 90S17 21 10-45l28-5c4 36 97 45 98 0-10-56-113-15-118-90-4-57 82-63 122-42 12 7 21 19 24 35" id="I"/><path fill="#3a414a" d="M114-163C36-179 61-72 57 0H25l-1-190h30c1 12-1 29 2 39 6-27 23-49 58-41v29" id="J"/><path fill="#3a414a" d="M108 0H70L1-190h34L89-25l56-165h34" id="K"/><path fill="#3a414a" d="M59-47c-2 24 18 29 38 22v24C64 9 27 4 27-40v-127H5v-23h24l9-43h21v43h35v23H59v120" id="L"/><path fill="#3a414a" d="M24-231v-30h32v30H24zM24 0v-190h32V0H24" id="M"/><path fill="#3a414a" d="M117-194c89-4 53 116 60 194h-32v-121c0-31-8-49-39-48C34-167 62-67 57 0H25l-1-190h30c1 10-1 24 2 32 11-22 29-35 61-36" id="N"/><g id="d"><use transform="matrix(0.06172839506172839,0,0,0.06172839506172839,0,0)" xlink:href="#C"/><use transform="matrix(0.06172839506172839,0,0,0.06172839506172839,17.28395061728395,0)" xlink:href="#H"/><use transform="matrix(0.06172839506172839,0,0,0.06172839506172839,29.629629629629626,0)" xlink:href="#I"/><use transform="matrix(0.06172839506172839,0,0,0.06172839506172839,40.74074074074073,0)" xlink:href="#u"/><use transform="matrix(0.06172839506172839,0,0,0.06172839506172839,53.08641975308641,0)" xlink:href="#J"/><use transform="matrix(0.06172839506172839,0,0,0.06172839506172839,60.43209876543209,0)" xlink:href="#K"/><use transform="matrix(0.06172839506172839,0,0,0.06172839506172839,71.5432098765432,0)" xlink:href="#D"/><use transform="matrix(0.06172839506172839,0,0,0.06172839506172839,83.88888888888889,0)" xlink:href="#L"/><use transform="matrix(0.06172839506172839,0,0,0.06172839506172839,90.06172839506172,0)" xlink:href="#M"/><use transform="matrix(0.06172839506172839,0,0,0.06172839506172839,94.93827160493827,0)" xlink:href="#v"/><use transform="matrix(0.06172839506172839,0,0,0.06172839506172839,107.28395061728395,0)" xlink:href="#N"/></g><path fill="#333" d="M106-169C34-169 62-67 57 0H25v-261h32l-1 103c12-21 28-36 61-36 89 0 53 116 60 194h-32v-121c2-32-8-49-39-48" id="O"/><path fill="#333" d="M141-36C126-15 110 5 73 4 37 3 15-17 15-53c-1-64 63-63 125-63 3-35-9-54-41-54-24 1-41 7-42 31l-33-3c5-37 33-52 76-52 45 0 72 20 72 64v82c-1 20 7 32 28 27v20c-31 9-61-2-59-35zM48-53c0 20 12 33 32 33 41-3 63-29 60-74-43 2-92-5-92 41" id="P"/><path fill="#333" d="M135-143c-3-34-86-38-87 0 15 53 115 12 119 90S17 21 10-45l28-5c4 36 97 45 98 0-10-56-113-15-118-90-4-57 82-63 122-42 12 7 21 19 24 35" id="Q"/><g id="e"><use transform="matrix(0.04938271604938272,0,0,0.04938271604938272,0,0)" xlink:href="#O"/><use transform="matrix(0.04938271604938272,0,0,0.04938271604938272,9.876543209876544,0)" xlink:href="#P"/><use transform="matrix(0.04938271604938272,0,0,0.04938271604938272,19.75308641975309,0)" xlink:href="#Q"/></g><path fill="#333" d="M101-234c-31-9-42 10-38 44h38v23H63V0H32v-167H5v-23h27c-7-52 17-82 69-68v24" id="R"/><path fill="#333" d="M100-194c63 0 86 42 84 106H49c0 40 14 67 53 68 26 1 43-12 49-29l28 8c-11 28-37 45-77 45C44 4 14-33 15-96c1-61 26-98 85-98zm52 81c6-60-76-77-97-28-3 7-6 17-6 28h103" id="S"/><path fill="#333" d="M59-47c-2 24 18 29 38 22v24C64 9 27 4 27-40v-127H5v-23h24l9-43h21v43h35v23H59v120" id="T"/><path fill="#333" d="M84 4C-5 8 30-112 23-190h32v120c0 31 7 50 39 49 72-2 45-101 50-169h31l1 190h-30c-1-10 1-25-2-33-11 22-28 36-60 37" id="U"/><path fill="#333" d="M114-163C36-179 61-72 57 0H25l-1-190h30c1 12-1 29 2 39 6-27 23-49 58-41v29" id="V"/><g id="f"><use transform="matrix(0.04938271604938272,0,0,0.04938271604938272,0,0)" xlink:href="#R"/><use transform="matrix(0.04938271604938272,0,0,0.04938271604938272,4.938271604938272,0)" xlink:href="#S"/><use transform="matrix(0.04938271604938272,0,0,0.04938271604938272,14.814814814814817,0)" xlink:href="#P"/><use transform="matrix(0.04938271604938272,0,0,0.04938271604938272,24.69135802469136,0)" xlink:href="#T"/><use transform="matrix(0.04938271604938272,0,0,0.04938271604938272,29.629629629629633,0)" xlink:href="#U"/><use transform="matrix(0.04938271604938272,0,0,0.04938271604938272,39.50617283950618,0)" xlink:href="#V"/><use transform="matrix(0.04938271604938272,0,0,0.04938271604938272,45.38271604938272,0)" xlink:href="#S"/></g><path fill="#333" d="M100-194c62-1 85 37 85 99 1 63-27 99-86 99S16-35 15-95c0-66 28-99 85-99zM99-20c44 1 53-31 53-75 0-43-8-75-51-75s-53 32-53 75 10 74 51 75" id="W"/><g id="g"><use transform="matrix(0.04938271604938272,0,0,0.04938271604938272,0,0)" xlink:href="#W"/><use transform="matrix(0.04938271604938272,0,0,0.04938271604938272,9.876543209876544,0)" xlink:href="#R"/></g><path fill="#333" d="M24-231v-30h32v30H24zM24 0v-190h32V0H24" id="X"/><path fill="#333" d="M117-194c89-4 53 116 60 194h-32v-121c0-31-8-49-39-48C34-167 62-67 57 0H25l-1-190h30c1 10-1 24 2 32 11-22 29-35 61-36" id="Y"/><g id="h"><use transform="matrix(0.04938271604938272,0,0,0.04938271604938272,0,0)" xlink:href="#X"/><use transform="matrix(0.04938271604938272,0,0,0.04938271604938272,3.901234567901235,0)" xlink:href="#Y"/><use transform="matrix(0.04938271604938272,0,0,0.04938271604938272,13.777777777777779,0)" xlink:href="#T"/><use transform="matrix(0.04938271604938272,0,0,0.04938271604938272,18.71604938271605,0)" xlink:href="#S"/><use transform="matrix(0.04938271604938272,0,0,0.04938271604938272,28.592592592592595,0)" xlink:href="#V"/><use transform="matrix(0.04938271604938272,0,0,0.04938271604938272,34.46913580246914,0)" xlink:href="#S"/><use transform="matrix(0.04938271604938272,0,0,0.04938271604938272,44.345679012345684,0)" xlink:href="#Q"/><use transform="matrix(0.04938271604938272,0,0,0.04938271604938272,53.23456790123457,0)" xlink:href="#T"/></g><path fill="#3a414a" d="M63-220v92h138v28H63V0H30v-248h175v28H63" id="Z"/><path fill="#3a414a" d="M84 4C-5 8 30-112 23-190h32v120c0 31 7 50 39 49 72-2 45-101 50-169h31l1 190h-30c-1-10 1-25-2-33-11 22-28 36-60 37" id="aa"/><g id="i"><use transform="matrix(0.06172839506172839,0,0,0.06172839506172839,0,0)" xlink:href="#Z"/><use transform="matrix(0.06172839506172839,0,0,0.06172839506172839,13.518518518518517,0)" xlink:href="#u"/><use transform="matrix(0.06172839506172839,0,0,0.06172839506172839,25.864197530864196,0)" xlink:href="#D"/><use transform="matrix(0.06172839506172839,0,0,0.06172839506172839,38.20987654320987,0)" xlink:href="#L"/><use transform="matrix(0.06172839506172839,0,0,0.06172839506172839,44.382716049382715,0)" xlink:href="#aa"/><use transform="matrix(0.06172839506172839,0,0,0.06172839506172839,56.72839506172839,0)" xlink:href="#J"/><use transform="matrix(0.06172839506172839,0,0,0.06172839506172839,64.07407407407408,0)" xlink:href="#u"/></g><path fill="#3a414a" d="M179-190L93 31C79 59 56 82 12 73V49c39 6 53-20 64-50L1-190h34L92-34l54-156h33" id="ab"/><g id="j"><use transform="matrix(0.06172839506172839,0,0,0.06172839506172839,0,0)" xlink:href="#t"/><use transform="matrix(0.06172839506172839,0,0,0.06172839506172839,17.28395061728395,0)" xlink:href="#u"/><use transform="matrix(0.06172839506172839,0,0,0.06172839506172839,29.629629629629626,0)" xlink:href="#v"/><use transform="matrix(0.06172839506172839,0,0,0.06172839506172839,41.9753086419753,0)" xlink:href="#E"/><use transform="matrix(0.06172839506172839,0,0,0.06172839506172839,60.43209876543209,0)" xlink:href="#u"/><use transform="matrix(0.06172839506172839,0,0,0.06172839506172839,72.77777777777777,0)" xlink:href="#L"/><use transform="matrix(0.06172839506172839,0,0,0.06172839506172839,78.9506172839506,0)" xlink:href="#J"/><use transform="matrix(0.06172839506172839,0,0,0.06172839506172839,86.29629629629629,0)" xlink:href="#ab"/></g><path fill="#333" d="M177-190C167-65 218 103 67 71c-23-6-38-20-44-43l32-5c15 47 100 32 89-28v-30C133-14 115 1 83 1 29 1 15-40 15-95c0-56 16-97 71-98 29-1 48 16 59 35 1-10 0-23 2-32h30zM94-22c36 0 50-32 50-73 0-42-14-75-50-75-39 0-46 34-46 75s6 73 46 73" id="ac"/><path fill="#333" d="M210-169c-67 3-38 105-44 169h-31v-121c0-29-5-50-35-48C34-165 62-65 56 0H25l-1-190h30c1 10-1 24 2 32 10-44 99-50 107 0 11-21 27-35 58-36 85-2 47 119 55 194h-31v-121c0-29-5-49-35-48" id="ad"/><path fill="#333" d="M179-190L93 31C79 59 56 82 12 73V49c39 6 53-20 64-50L1-190h34L92-34l54-156h33" id="ae"/><g id="k"><use transform="matrix(0.04938271604938272,0,0,0.04938271604938272,0,0)" xlink:href="#ac"/><use transform="matrix(0.04938271604938272,0,0,0.04938271604938272,9.876543209876544,0)" xlink:href="#S"/><use transform="matrix(0.04938271604938272,0,0,0.04938271604938272,19.75308641975309,0)" xlink:href="#W"/><use transform="matrix(0.04938271604938272,0,0,0.04938271604938272,29.629629629629633,0)" xlink:href="#ad"/><use transform="matrix(0.04938271604938272,0,0,0.04938271604938272,44.39506172839506,0)" xlink:href="#S"/><use transform="matrix(0.04938271604938272,0,0,0.04938271604938272,54.27160493827161,0)" xlink:href="#T"/><use transform="matrix(0.04938271604938272,0,0,0.04938271604938272,59.20987654320988,0)" xlink:href="#V"/><use transform="matrix(0.04938271604938272,0,0,0.04938271604938272,65.08641975308642,0)" xlink:href="#ae"/></g><path fill="#333" d="M115-194c53 0 69 39 70 98 0 66-23 100-70 100C84 3 66-7 56-30L54 0H23l1-261h32v101c10-23 28-34 59-34zm-8 174c40 0 45-34 45-75 0-40-5-75-45-74-42 0-51 32-51 76 0 43 10 73 51 73" id="af"/><path fill="#333" d="M96-169c-40 0-48 33-48 73s9 75 48 75c24 0 41-14 43-38l32 2c-6 37-31 61-74 61-59 0-76-41-82-99-10-93 101-131 147-64 4 7 5 14 7 22l-32 3c-4-21-16-35-41-35" id="ag"/><path fill="#333" d="M24 0v-261h32V0H24" id="ah"/><g id="l"><use transform="matrix(0.04938271604938272,0,0,0.04938271604938272,0,0)" xlink:href="#Q"/><use transform="matrix(0.04938271604938272,0,0,0.04938271604938272,8.88888888888889,0)" xlink:href="#U"/><use transform="matrix(0.04938271604938272,0,0,0.04938271604938272,18.765432098765434,0)" xlink:href="#af"/><use transform="matrix(0.04938271604938272,0,0,0.04938271604938272,28.641975308641978,0)" xlink:href="#ag"/><use transform="matrix(0.04938271604938272,0,0,0.04938271604938272,37.53086419753087,0)" xlink:href="#ah"/><use transform="matrix(0.04938271604938272,0,0,0.04938271604938272,41.4320987654321,0)" xlink:href="#P"/><use transform="matrix(0.04938271604938272,0,0,0.04938271604938272,51.308641975308646,0)" xlink:href="#Q"/><use transform="matrix(0.04938271604938272,0,0,0.04938271604938272,60.19753086419754,0)" xlink:href="#Q"/></g><g id="m"><use transform="matrix(0.04938271604938272,0,0,0.04938271604938272,0,0)" xlink:href="#W"/><use transform="matrix(0.04938271604938272,0,0,0.04938271604938272,9.876543209876544,0)" xlink:href="#R"/></g><g id="n"><use transform="matrix(0.06172839506172839,0,0,0.06172839506172839,0,0)" xlink:href="#Z"/><use transform="matrix(0.06172839506172839,0,0,0.06172839506172839,13.518518518518517,0)" xlink:href="#u"/><use transform="matrix(0.06172839506172839,0,0,0.06172839506172839,25.864197530864196,0)" xlink:href="#D"/><use transform="matrix(0.06172839506172839,0,0,0.06172839506172839,38.20987654320987,0)" xlink:href="#L"/><use transform="matrix(0.06172839506172839,0,0,0.06172839506172839,44.382716049382715,0)" xlink:href="#aa"/><use transform="matrix(0.06172839506172839,0,0,0.06172839506172839,56.72839506172839,0)" xlink:href="#J"/><use transform="matrix(0.06172839506172839,0,0,0.06172839506172839,64.07407407407408,0)" xlink:href="#u"/></g><path fill="#3a414a" d="M101-234c-31-9-42 10-38 44h38v23H63V0H32v-167H5v-23h27c-7-52 17-82 69-68v24" id="ai"/><g id="o"><use transform="matrix(0.06172839506172839,0,0,0.06172839506172839,0,0)" xlink:href="#v"/><use transform="matrix(0.06172839506172839,0,0,0.06172839506172839,12.345679012345679,0)" xlink:href="#ai"/></g><path fill="#3a414a" d="M33 0v-248h34V0H33" id="aj"/><g id="p"><use transform="matrix(0.06172839506172839,0,0,0.06172839506172839,0,0)" xlink:href="#aj"/><use transform="matrix(0.06172839506172839,0,0,0.06172839506172839,6.172839506172839,0)" xlink:href="#N"/><use transform="matrix(0.06172839506172839,0,0,0.06172839506172839,18.51851851851852,0)" xlink:href="#L"/><use transform="matrix(0.06172839506172839,0,0,0.06172839506172839,24.691358024691358,0)" xlink:href="#u"/><use transform="matrix(0.06172839506172839,0,0,0.06172839506172839,37.03703703703704,0)" xlink:href="#J"/><use transform="matrix(0.06172839506172839,0,0,0.06172839506172839,44.382716049382715,0)" xlink:href="#u"/><use transform="matrix(0.06172839506172839,0,0,0.06172839506172839,56.72839506172839,0)" xlink:href="#I"/><use transform="matrix(0.06172839506172839,0,0,0.06172839506172839,67.8395061728395,0)" xlink:href="#L"/></g><g id="q"><use transform="matrix(0.04938271604938272,0,0,0.04938271604938272,0,0)" xlink:href="#W"/><use transform="matrix(0.04938271604938272,0,0,0.04938271604938272,9.876543209876544,0)" xlink:href="#R"/></g><path fill="#333" d="M0 4l72-265h28L28 4H0" id="ak"/><use transform="matrix(0.04938271604938272,0,0,0.04938271604938272,0,0)" xlink:href="#ak" id="r"/><path fill="#333" d="M115-194c55 1 70 41 70 98S169 2 115 4C84 4 66-9 55-30l1 105H24l-1-265h31l2 30c10-21 28-34 59-34zm-8 174c40 0 45-34 45-75s-6-73-45-74c-42 0-51 32-51 76 0 43 10 73 51 73" id="al"/><g id="s"><use transform="matrix(0.04938271604938272,0,0,0.04938271604938272,0,0)" xlink:href="#Q"/><use transform="matrix(0.04938271604938272,0,0,0.04938271604938272,8.88888888888889,0)" xlink:href="#P"/><use transform="matrix(0.04938271604938272,0,0,0.04938271604938272,18.765432098765434,0)" xlink:href="#ad"/><use transform="matrix(0.04938271604938272,0,0,0.04938271604938272,33.53086419753087,0)" xlink:href="#al"/><use transform="matrix(0.04938271604938272,0,0,0.04938271604938272,43.40740740740741,0)" xlink:href="#ah"/><use transform="matrix(0.04938271604938272,0,0,0.04938271604938272,47.308641975308646,0)" xlink:href="#S"/></g></defs></g></svg>